<svg width="30" height="30" viewBox="0 0 30 30" fill="none" xmlns="http://www.w3.org/2000/svg">
<path d="M29.9655 14.7942V24.0037C30.0556 24.7814 29.9687 25.5694 29.7113 26.3087C29.4539 27.0481 29.0327 27.7197 28.4791 28.2733C27.9255 28.8269 27.2539 29.2481 26.5146 29.5055C25.7752 29.7629 24.9872 29.8498 24.2095 29.7596H5.79048C5.0128 29.8498 4.2248 29.7629 3.48544 29.5055C2.74607 29.2481 2.07447 28.8269 1.52089 28.2733C0.967303 27.7197 0.546058 27.0481 0.288665 26.3087C0.0312724 25.5694 -0.0556051 24.7814 0.0345316 24.0037V8.6545C-0.0556051 7.87682 0.0312724 7.08882 0.288665 6.34946C0.546058 5.61009 0.967303 4.93849 1.52089 4.38491C2.07447 3.83132 2.74607 3.41008 3.48544 3.15269C4.2248 2.89529 5.0128 2.80842 5.79048 2.89855H16.5349C16.8402 2.89855 17.133 3.01984 17.3489 3.23573C17.5648 3.45162 17.6861 3.74443 17.6861 4.04974C17.6861 4.35506 17.5648 4.64787 17.3489 4.86376C17.133 5.07965 16.8402 5.20093 16.5349 5.20093H5.79048C3.36991 5.20093 2.33691 6.23393 2.33691 8.6545V22.8525L6.23561 18.9538C6.52541 18.6662 6.91713 18.5049 7.3254 18.5049C7.73367 18.5049 8.12539 18.6662 8.41519 18.9538L9.85802 20.3966C10.0015 20.5373 10.1944 20.616 10.3952 20.616C10.5961 20.616 10.789 20.5373 10.9325 20.3966L18.515 12.8141C18.8048 12.5266 19.1965 12.3652 19.6048 12.3652C20.013 12.3652 20.4047 12.5266 20.6946 12.8141L27.6631 19.7827V14.7942C27.6631 14.4889 27.7844 14.1961 28.0003 13.9802C28.2162 13.7643 28.509 13.643 28.8143 13.643C29.1196 13.643 29.4124 13.7643 29.6283 13.9802C29.8442 14.1961 29.9655 14.4889 29.9655 14.7942ZM8.84958 9.80569C8.33996 9.80711 7.85175 10.0107 7.49216 10.3718C7.13256 10.733 6.93098 11.222 6.9317 11.7316C6.93241 12.2412 7.13535 12.7297 7.49595 13.0898C7.85655 13.4499 8.34534 13.6522 8.85495 13.6522C9.36456 13.6522 9.85334 13.4499 10.2139 13.0898C10.5745 12.7297 10.7775 12.2412 10.7782 11.7316C10.7789 11.222 10.5773 10.733 10.2177 10.3718C9.85815 10.0107 9.36993 9.80711 8.86032 9.80569H8.84958ZM22.6746 6.73585H24.5932V8.6545C24.5932 8.95982 24.7145 9.25263 24.9304 9.46852C25.1463 9.68441 25.4391 9.80569 25.7444 9.80569C26.0498 9.80569 26.3426 9.68441 26.5585 9.46852C26.7743 9.25263 26.8956 8.95982 26.8956 8.6545V6.73585H28.8143C29.1196 6.73585 29.4124 6.61457 29.6283 6.39868C29.8442 6.18279 29.9655 5.88998 29.9655 5.58466C29.9655 5.27935 29.8442 4.98654 29.6283 4.77065C29.4124 4.55476 29.1196 4.43347 28.8143 4.43347H26.8956V2.51482C26.8956 2.20951 26.7743 1.9167 26.5585 1.70081C26.3426 1.48492 26.0498 1.36363 25.7444 1.36363C25.4391 1.36363 25.1463 1.48492 24.9304 1.70081C24.7145 1.9167 24.5932 2.20951 24.5932 2.51482V4.43347H22.6746C22.3693 4.43347 22.0765 4.55476 21.8606 4.77065C21.6447 4.98654 21.5234 5.27935 21.5234 5.58466C21.5234 5.88998 21.6447 6.18279 21.8606 6.39868C22.0765 6.61457 22.3693 6.73585 22.6746 6.73585Z" fill="white"/>
</svg>
