<svg width="14" height="16" viewBox="0 0 14 16" fill="none" xmlns="http://www.w3.org/2000/svg">
<g id="Group">
<path id="Layer 2" d="M11.6667 0H2.33334C1.7145 0 1.12101 0.252849 0.683421 0.702924C0.245836 1.153 3.67093e-06 1.76343 3.67093e-06 2.39993V14.2396C-0.000567449 14.51 0.0655109 14.7762 0.192066 15.0132C0.318622 15.2502 0.501525 15.4504 0.72369 15.595C0.945854 15.7396 1.20003 15.824 1.46248 15.8402C1.72493 15.8563 1.98708 15.8038 2.22445 15.6876C2.41111 15.5916 2.57445 15.4876 2.74556 15.3836C3.07465 15.1294 3.4775 14.9969 3.88889 15.0076C4.30267 14.997 4.70796 15.1294 5.04 15.3836C5.61433 15.7953 6.30002 16.0108 7 15.9995C7.70006 16.0113 8.38591 15.7958 8.96 15.3836C9.29177 15.1288 9.69724 14.9964 10.1111 15.0076C10.5227 14.9957 10.9259 15.1283 11.2544 15.3836C11.4229 15.4917 11.5969 15.5905 11.7756 15.6796C12.0123 15.7955 12.2738 15.8481 12.5356 15.8323C12.7974 15.8165 13.0511 15.7328 13.273 15.5892C13.495 15.4455 13.678 15.2464 13.8051 15.0105C13.9322 14.7745 13.9993 14.5093 14 14.2396V2.39993C14 1.76343 13.7542 1.153 13.3166 0.702924C12.879 0.252849 12.2855 0 11.6667 0ZM7 11.1997H3.88889C3.68261 11.1997 3.48478 11.1154 3.33892 10.9654C3.19306 10.8153 3.11111 10.6119 3.11111 10.3997C3.11111 10.1875 3.19306 9.98406 3.33892 9.83403C3.48478 9.68401 3.68261 9.59972 3.88889 9.59972H7C7.20628 9.59972 7.40411 9.68401 7.54997 9.83403C7.69584 9.98406 7.77778 10.1875 7.77778 10.3997C7.77778 10.6119 7.69584 10.8153 7.54997 10.9654C7.40411 11.1154 7.20628 11.1997 7 11.1997ZM10.1111 7.99977H3.88889C3.68261 7.99977 3.48478 7.91549 3.33892 7.76546C3.19306 7.61544 3.11111 7.41196 3.11111 7.19979C3.11111 6.98763 3.19306 6.78415 3.33892 6.63412C3.48478 6.4841 3.68261 6.39982 3.88889 6.39982H10.1111C10.3174 6.39982 10.5152 6.4841 10.6611 6.63412C10.8069 6.78415 10.8889 6.98763 10.8889 7.19979C10.8889 7.41196 10.8069 7.61544 10.6611 7.76546C10.5152 7.91549 10.3174 7.99977 10.1111 7.99977ZM10.1111 4.79986H3.88889C3.68261 4.79986 3.48478 4.71558 3.33892 4.56555C3.19306 4.41553 3.11111 4.21205 3.11111 3.99989C3.11111 3.78772 3.19306 3.58424 3.33892 3.43422C3.48478 3.28419 3.68261 3.19991 3.88889 3.19991H10.1111C10.3174 3.19991 10.5152 3.28419 10.6611 3.43422C10.8069 3.58424 10.8889 3.78772 10.8889 3.99989C10.8889 4.21205 10.8069 4.41553 10.6611 4.56555C10.5152 4.71558 10.3174 4.79986 10.1111 4.79986Z" fill="white"/>
</g>
</svg>
