<svg width="10" height="6" viewBox="0 0 10 6" fill="none" xmlns="http://www.w3.org/2000/svg">
<path id="1" d="M4.67541 3.19914L1.801 0.323305C1.6007 0.129665 1.33236 0.0238604 1.05377 0.0261492C0.775186 0.0284381 0.508643 0.140053 0.311553 0.336957C0.114464 0.533862 0.00259568 0.8003 4.44054e-05 1.07888C-0.00250687 1.35747 0.104464 1.62591 0.297914 1.82639L3.92458 5.45305C4.02313 5.55175 4.14017 5.63004 4.26901 5.68346C4.39784 5.73688 4.53594 5.76437 4.67541 5.76437C4.81489 5.76437 4.95299 5.73688 5.08182 5.68346C5.21066 5.63004 5.3277 5.55175 5.42625 5.45305L9.05291 1.82639C9.15435 1.72833 9.23523 1.61105 9.29086 1.48139C9.34648 1.35174 9.37572 1.2123 9.37688 1.07123C9.37804 0.930147 9.35109 0.790251 9.29761 0.6597C9.24412 0.529148 9.16517 0.410555 9.06536 0.310842C8.96556 0.211128 8.84689 0.132291 8.71629 0.078929C8.58569 0.0255672 8.44576 -0.00125064 8.30469 4.11218e-05C8.16361 0.00133288 8.0242 0.0307089 7.8946 0.0864536C7.765 0.142198 7.6478 0.223197 7.54983 0.324721L4.67541 3.19914Z" fill="white"/>
</svg>
