<svg width="16" height="16" viewBox="0 0 16 16" fill="none" xmlns="http://www.w3.org/2000/svg">
<path d="M13.3332 5.33333C14.8059 5.33333 15.9998 4.13943 15.9998 2.66667C15.9998 1.19391 14.8059 0 13.3332 0C11.8604 0 10.6665 1.19391 10.6665 2.66667C10.6665 4.13943 11.8604 5.33333 13.3332 5.33333Z" fill="#323030"/>
<path d="M2.66667 10.6667C4.13943 10.6667 5.33333 9.47275 5.33333 7.99999C5.33333 6.52724 4.13943 5.33333 2.66667 5.33333C1.19391 5.33333 0 6.52724 0 7.99999C0 9.47275 1.19391 10.6667 2.66667 10.6667Z" fill="#323030"/>
<path d="M13.3332 16C14.8059 16 15.9998 14.8061 15.9998 13.3333C15.9998 11.8606 14.8059 10.6667 13.3332 10.6667C11.8604 10.6667 10.6665 11.8606 10.6665 13.3333C10.6665 14.8061 11.8604 16 13.3332 16Z" fill="#323030"/>
<path d="M9.63161 10.7367L6.96494 9.40338C6.8067 9.32435 6.62354 9.31141 6.45576 9.36742C6.28797 9.42343 6.14931 9.5438 6.07028 9.70205C5.99124 9.86029 5.97831 10.0435 6.03432 10.2112C6.09033 10.379 6.2107 10.5177 6.36895 10.5967L9.03561 11.93C9.11397 11.9692 9.19926 11.9925 9.28663 11.9987C9.374 12.0048 9.46172 11.9937 9.5448 11.966C9.62788 11.9383 9.70468 11.8944 9.77082 11.837C9.83696 11.7796 9.89114 11.7097 9.93028 11.6314C9.96941 11.553 9.99273 11.4677 9.9989 11.3804C10.0051 11.293 9.99397 11.2053 9.96624 11.1222C9.9385 11.0391 9.89468 10.9623 9.83726 10.8962C9.77985 10.83 9.70997 10.7758 9.63161 10.7367ZM9.03561 4.07071L6.36895 5.40405C6.21646 5.48628 6.10197 5.62463 6.04973 5.78981C5.9975 5.95499 6.01161 6.13402 6.08909 6.28898C6.16656 6.44393 6.30132 6.56264 6.4648 6.61996C6.62829 6.67727 6.80767 6.6687 6.96494 6.59605L9.63161 5.26271C9.71062 5.224 9.78119 5.17002 9.83924 5.10391C9.89729 5.03779 9.94167 4.96083 9.96984 4.87748C9.99801 4.79413 10.0094 4.70602 10.0034 4.61824C9.9973 4.53047 9.97394 4.44475 9.93461 4.36605C9.89528 4.28734 9.84076 4.2172 9.77419 4.15967C9.70762 4.10214 9.63033 4.05835 9.54675 4.03083C9.46318 4.00332 9.37499 3.99261 9.28726 3.99934C9.19954 4.00607 9.11401 4.03077 9.03561 4.07071Z" fill="#323030"/>
</svg>
