<svg width="38" height="38" viewBox="0 0 38 38" fill="none" xmlns="http://www.w3.org/2000/svg">
<circle cx="19" cy="19" r="18.5" stroke="#0056B3"/>
<path d="M24.3334 21.6667C25.8062 21.6667 27.0001 22.8606 27.0001 24.3333C27.0001 25.8061 25.8062 27 24.3334 27C22.8607 27 21.6667 25.8061 21.6667 24.3333C21.6667 22.8606 22.8607 21.6667 24.3334 21.6667Z" fill="#0056B3"/>
<path d="M13.6667 16.3333C15.1394 16.3333 16.3333 17.5272 16.3333 19C16.3333 20.4728 15.1394 21.6667 13.6667 21.6667C12.1939 21.6667 11 20.4728 11 19C11 17.5272 12.1939 16.3333 13.6667 16.3333Z" fill="#0056B3"/>
<path d="M24.3334 11C25.8062 11 27.0001 12.1939 27.0001 13.6667C27.0001 15.1394 25.8062 16.3333 24.3334 16.3333C22.8607 16.3333 21.6667 15.1394 21.6667 13.6667C21.6667 12.1939 22.8607 11 24.3334 11Z" fill="#0056B3"/>
<path d="M20.6314 16.2633L17.9647 17.5966C17.8065 17.6756 17.6233 17.6886 17.4555 17.6326C17.2877 17.5766 17.1491 17.4562 17.07 17.2979C16.991 17.1397 16.9781 16.9565 17.0341 16.7888C17.0901 16.621 17.2105 16.4823 17.3687 16.4033L20.0354 15.0699C20.1137 15.0308 20.199 15.0075 20.2864 15.0013C20.3738 14.9952 20.4615 15.0063 20.5446 15.034C20.6276 15.0617 20.7044 15.1055 20.7706 15.163C20.8367 15.2204 20.8909 15.2903 20.93 15.3686C20.9692 15.447 20.9925 15.5323 20.9987 15.6196C21.0048 15.707 20.9937 15.7947 20.966 15.8778C20.9383 15.9609 20.8944 16.0377 20.837 16.1038C20.7796 16.17 20.7097 16.2241 20.6314 16.2633ZM20.0354 22.9293L17.3687 21.5959C17.2162 21.5137 17.1017 21.3754 17.0495 21.2102C16.9973 21.045 17.0114 20.866 17.0888 20.711C17.1663 20.5561 17.3011 20.4374 17.4646 20.38C17.628 20.3227 17.8074 20.3313 17.9647 20.4039L20.6314 21.7373C20.7104 21.776 20.7809 21.83 20.839 21.8961C20.897 21.9622 20.9414 22.0392 20.9696 22.1225C20.9978 22.2059 21.0092 22.294 21.0031 22.3817C20.9971 22.4695 20.9737 22.5552 20.9344 22.6339C20.895 22.7126 20.8405 22.7828 20.7739 22.8403C20.7074 22.8979 20.6301 22.9416 20.5465 22.9692C20.4629 22.9967 20.3747 23.0074 20.287 23.0006C20.1993 22.9939 20.1138 22.9692 20.0354 22.9293Z" fill="#0056B3"/>
</svg>
