<svg width="11" height="11" viewBox="0 0 11 11" fill="none" xmlns="http://www.w3.org/2000/svg">
<circle cx="5.7522" cy="5.75195" r="5" fill="#34303E"/>
<path d="M6.8621 7.39197C6.89654 7.42838 6.93793 7.45752 6.98383 7.47766C7.02973 7.49781 7.0792 7.50854 7.12932 7.50924C7.17944 7.50994 7.22919 7.50058 7.27563 7.48172C7.32207 7.46286 7.36425 7.43488 7.3997 7.39944C7.43514 7.364 7.46312 7.32181 7.48198 7.27537C7.50084 7.22893 7.51019 7.17918 7.5095 7.12906C7.5088 7.07894 7.49806 7.02947 7.47792 6.98358C7.45778 6.93768 7.42864 6.89628 7.39222 6.86184L6.29347 5.76309C6.29202 5.76164 6.29086 5.75992 6.29007 5.75802C6.28929 5.75612 6.28888 5.75408 6.28888 5.75203C6.28888 5.74997 6.28929 5.74794 6.29007 5.74604C6.29086 5.74414 6.29202 5.74242 6.29347 5.74097L7.39222 4.64222C7.42751 4.6075 7.45558 4.56615 7.47481 4.52053C7.49404 4.47491 7.50405 4.42594 7.50425 4.37644C7.50446 4.32694 7.49486 4.27788 7.47602 4.23211C7.45717 4.18633 7.42945 4.14474 7.39445 4.10974C7.35945 4.07473 7.31787 4.047 7.2721 4.02814C7.22633 4.00928 7.17728 3.99968 7.12777 3.99987C7.07827 4.00007 7.0293 4.01006 6.98368 4.02928C6.93806 4.0485 6.89669 4.07656 6.86197 4.11184L5.76322 5.21059C5.76177 5.21205 5.76005 5.2132 5.75815 5.21399C5.75625 5.21478 5.75421 5.21518 5.75216 5.21518C5.7501 5.21518 5.74807 5.21478 5.74617 5.21399C5.74427 5.2132 5.74255 5.21205 5.7411 5.21059L4.64235 4.11184C4.60763 4.07655 4.56628 4.04848 4.52066 4.02925C4.47504 4.01002 4.42607 4.00002 4.37657 3.99981C4.32707 3.9996 4.27802 4.0092 4.23224 4.02804C4.18646 4.04689 4.14487 4.07461 4.10987 4.10961C4.07486 4.14461 4.04713 4.18619 4.02827 4.23197C4.00941 4.27774 3.99981 4.32679 4 4.37629C4.0002 4.42579 4.01019 4.47477 4.02941 4.52039C4.04863 4.56601 4.07669 4.60737 4.11197 4.64209L5.21072 5.74084C5.21218 5.74229 5.21333 5.74402 5.21412 5.74592C5.21491 5.74781 5.21531 5.74985 5.21531 5.7519C5.21531 5.75396 5.21491 5.75599 5.21412 5.75789C5.21333 5.75979 5.21218 5.76151 5.21072 5.76297L4.11197 6.86172C4.04258 6.93223 4.00387 7.0273 4.00426 7.12623C4.00465 7.22515 4.04412 7.31992 4.11406 7.38988C4.184 7.45984 4.27876 7.49933 4.37768 7.49974C4.47661 7.50016 4.57169 7.46146 4.64222 7.39209L5.74097 6.29334C5.74242 6.29189 5.74415 6.29073 5.74605 6.28994C5.74794 6.28916 5.74998 6.28875 5.75203 6.28875C5.75409 6.28875 5.75612 6.28916 5.75802 6.28994C5.75992 6.29073 5.76165 6.29189 5.7631 6.29334L6.8621 7.39197Z" fill="#E8E8EA"/>
</svg>
