<svg width="19" height="19" viewBox="0 0 19 19" fill="none" xmlns="http://www.w3.org/2000/svg">
<g id="Group">
<path id="Vector" d="M3.33688 15.2632H0.59375C0.454545 15.2632 0.321041 15.3185 0.222607 15.4169C0.124174 15.5154 0.0688749 15.6489 0.0688749 15.7881V18.475C0.0688749 18.7655 0.304 18.9999 0.59375 18.9999H3.33608C3.47529 18.9999 3.60879 18.9446 3.70723 18.8461C3.80566 18.7477 3.86096 18.6142 3.86096 18.475V15.7881C3.86096 15.6489 3.80566 15.5154 3.70723 15.4169C3.60879 15.3185 3.47608 15.2632 3.33688 15.2632ZM8.36 11.061H5.61767C5.4786 11.0612 5.3453 11.1166 5.24704 11.215C5.14877 11.3135 5.09358 11.4468 5.09358 11.5859V18.475C5.09358 18.7655 5.32792 18.9999 5.61767 18.9999H8.36C8.49921 18.9999 8.63271 18.9446 8.73114 18.8461C8.82958 18.7477 8.88488 18.6142 8.88488 18.475V11.5859C8.88488 11.4467 8.82958 11.3132 8.73114 11.2148C8.63271 11.1163 8.49921 11.061 8.36 11.061ZM13.3831 12.7536H10.6416C10.5024 12.7536 10.3689 12.8089 10.2704 12.9073C10.172 13.0058 10.1167 13.1393 10.1167 13.2785V18.475C10.1167 18.7655 10.351 18.9999 10.6416 18.9999H13.3831C13.5223 18.9999 13.6558 18.9446 13.7543 18.8461C13.8527 18.7477 13.908 18.6142 13.908 18.475V13.2785C13.908 13.1393 13.8527 13.0058 13.7543 12.9073C13.6558 12.8089 13.5223 12.7536 13.3831 12.7536ZM18.4062 8.81111H15.6647C15.5255 8.81111 15.392 8.86641 15.2936 8.96485C15.1951 9.06328 15.1398 9.19678 15.1398 9.33599V18.475C15.1398 18.7655 15.375 18.9999 15.6647 18.9999H18.4062C18.5455 18.9999 18.679 18.9446 18.7774 18.8461C18.8758 18.7477 18.9311 18.6142 18.9311 18.475V9.33599C18.9311 9.19678 18.8758 9.06328 18.7774 8.96485C18.679 8.86641 18.5455 8.81111 18.4062 8.81111ZM16.1183 3.97878C16.3938 4.12366 16.7026 4.21391 17.0351 4.21391C17.2923 4.21505 17.5472 4.16546 17.7853 4.06796C18.0233 3.97046 18.2398 3.82697 18.4223 3.64571C18.6048 3.46445 18.7498 3.24897 18.8489 3.01161C18.948 2.77425 18.9994 2.51968 19 2.26245C18.9992 1.74158 18.7919 1.24228 18.4236 0.873967C18.0553 0.505655 17.556 0.298369 17.0351 0.297531C16.5143 0.298578 16.0153 0.505956 15.6471 0.874246C15.279 1.24254 15.0718 1.74171 15.071 2.26245C15.071 2.43186 15.0987 2.59257 15.139 2.74853L13.1203 4.33978C12.8044 4.12286 12.4236 3.99461 12.012 3.99461C11.4182 3.99461 10.891 4.26616 10.53 4.68495L8.92763 3.96295C8.86591 3.49185 8.6354 3.05914 8.27885 2.74511C7.92231 2.43107 7.46395 2.25705 6.98883 2.25532C6.46796 2.25616 5.96866 2.46345 5.60035 2.83176C5.23204 3.20007 5.02475 3.69937 5.02392 4.22024C5.02392 4.30891 5.03896 4.39361 5.05083 4.47911L2.88008 6.18911C2.59924 6.03588 2.28483 5.95456 1.96492 5.95241C1.44405 5.95324 0.944748 6.16053 0.576436 6.52884C0.208124 6.89715 0.000837415 7.39645 0 7.91732C0.000622041 8.17455 0.0519687 8.42913 0.151101 8.66649C0.250233 8.90385 0.395204 9.11932 0.577716 9.30058C0.760228 9.48185 0.976696 9.62533 1.21473 9.72283C1.45277 9.82033 1.70769 9.86993 1.96492 9.86878C2.22208 9.86982 2.47692 9.82015 2.71486 9.7226C2.9528 9.62506 3.16918 9.48155 3.35161 9.3003C3.53403 9.11905 3.67893 8.90361 3.77802 8.6663C3.8771 8.429 3.92842 8.17448 3.92904 7.91732C3.92904 7.74474 3.89975 7.58007 3.85779 7.42095L5.87813 5.82811C6.27717 6.10205 6.76355 6.21845 7.24338 6.15485C7.72321 6.09126 8.16247 5.85217 8.47637 5.48374L10.0724 6.20257C10.1318 6.67484 10.3618 7.10911 10.719 7.42373C11.0761 7.73835 11.536 7.91163 12.012 7.91099C12.2692 7.91214 12.5241 7.86254 12.7621 7.76504C13.0002 7.66754 13.2166 7.52406 13.3992 7.34279C13.5817 7.16153 13.7266 6.94605 13.8258 6.7087C13.9249 6.47134 13.9763 6.21676 13.9769 5.95953C13.9769 5.86691 13.9618 5.77745 13.9492 5.68799L16.1183 3.97878Z" fill="white"/>
</g>
</svg>
