<svg width="31" height="31" viewBox="0 0 31 31" fill="none" xmlns="http://www.w3.org/2000/svg">
<path d="M15.5 24.434C11.9814 24.434 8.66146 24.0217 6.15191 23.2729C5.28373 23.0139 4.34374 22.6603 3.55518 22.1918V28.0736C3.55518 28.4401 4.38503 29.2328 6.67116 29.9148C9.01693 30.6146 12.1523 31 15.5 31C18.8477 31 21.9832 30.6146 24.3289 29.9148C26.6151 29.2327 27.4449 28.4401 27.4449 28.0736V22.1918C26.6563 22.6603 25.7164 23.0139 24.8481 23.2729C22.3386 24.0217 19.0187 24.434 15.5 24.434ZM14.3127 28.6252H12.4963V26.8088H14.3127V28.6252ZM18.5038 28.6252H16.6874V26.8088H18.5038V28.6252Z" fill="white"/>
<path d="M15.5 16.0515C11.9814 16.0515 8.66146 15.6392 6.15191 14.8905C5.28373 14.6315 4.34374 14.2778 3.55518 13.8093V19.6912C3.55518 20.0576 4.38503 20.8503 6.67116 21.5323C9.01687 22.2321 12.1523 22.6175 15.5 22.6175C18.8477 22.6175 21.9831 22.2321 24.3288 21.5323C26.615 20.8502 27.4448 20.0576 27.4448 19.6912V13.8093C26.6562 14.2778 25.7163 14.6315 24.8481 14.8905C22.3386 15.6393 19.0187 16.0515 15.5 16.0515ZM14.3127 20.2428H12.4963V18.4264H14.3127V20.2428ZM18.5038 20.2428H16.6874V18.4264H18.5038V20.2428Z" fill="white"/>
<path d="M15.5 7.66917C11.9814 7.66917 8.66152 7.25678 6.15191 6.50812C5.28373 6.2491 4.34374 5.89539 3.55518 5.42688V11.3088C3.55518 11.6752 4.38503 12.4679 6.67116 13.1499C9.01687 13.8497 12.1523 14.2351 15.5 14.2351C18.8477 14.2351 21.9831 13.8497 24.3288 13.1499C26.615 12.4678 27.4448 11.6752 27.4448 11.3088V5.42688C26.6562 5.89539 25.7163 6.2491 24.8481 6.50812C22.3386 7.25678 19.0187 7.66917 15.5 7.66917ZM14.3127 11.8603H12.4963V10.0439H14.3127V11.8603ZM18.5038 11.8603H16.6874V10.0439H18.5038V11.8603Z" fill="white"/>
<path d="M6.6714 4.76752C9.01711 5.46738 12.1525 5.85276 15.5002 5.85276C18.8479 5.85276 21.9833 5.46738 24.3291 4.76752C26.6152 4.08546 27.445 3.29278 27.445 2.92635C27.445 2.55992 26.6152 1.76724 24.3291 1.08524C21.9833 0.385381 18.8479 0 15.5002 0C12.1525 0 9.01711 0.385381 6.6714 1.08524C4.38521 1.76724 3.55542 2.55992 3.55542 2.92635C3.55542 3.29278 4.38521 4.08552 6.6714 4.76752Z" fill="white"/>
</svg>
