<svg width="31" height="31" viewBox="0 0 31 31" fill="none" xmlns="http://www.w3.org/2000/svg">
<path d="M19.9805 9.08203C18.812 9.08203 17.8613 8.13138 17.8613 6.96289V0H7.02344C5.18723 0 3.69336 1.49387 3.69336 3.33008V27.6699C3.69336 29.5061 5.18723 31 7.02344 31H23.9766C25.8128 31 27.3066 29.5061 27.3066 27.6699V9.08203H19.9805ZM8.6582 21.7969H13.0612C13.5627 21.7969 13.9694 22.2035 13.9694 22.7051C13.9694 23.2066 13.5627 23.6133 13.0612 23.6133H8.6582C8.15663 23.6133 7.75 23.2066 7.75 22.7051C7.75 22.2035 8.15663 21.7969 8.6582 21.7969ZM7.75 17.8613C7.75 17.3598 8.15663 16.9531 8.6582 16.9531H21.9785C22.4801 16.9531 22.8867 17.3598 22.8867 17.8613C22.8867 18.3629 22.4801 18.7695 21.9785 18.7695H8.6582C8.15663 18.7695 7.75 18.3629 7.75 17.8613ZM21.9785 12.1094C22.4801 12.1094 22.8867 12.516 22.8867 13.0176C22.8867 13.5191 22.4801 13.9258 21.9785 13.9258H8.6582C8.15663 13.9258 7.75 13.5191 7.75 13.0176C7.75 12.516 8.15663 12.1094 8.6582 12.1094H21.9785Z" fill="white"/>
<path d="M19.6777 6.96289C19.6777 7.12982 19.8135 7.26563 19.9805 7.26563H26.9018C26.7349 6.95657 26.52 6.67594 26.2652 6.4342L20.4271 0.910989C20.2032 0.699145 19.951 0.519328 19.6778 0.376663V6.96289H19.6777Z" fill="white"/>
</svg>
