<svg width="38" height="38" viewBox="0 0 38 38" fill="none" xmlns="http://www.w3.org/2000/svg">
<circle cx="19" cy="19" r="18.5" stroke="#0056B3"/>
<path d="M20.6537 14.4091H22.4895L19.6797 11.4533V13.4313C19.6797 13.9671 20.1143 14.4091 20.6537 14.4091L20.6537 14.4091Z" fill="#0056B3"/>
<path d="M17.6082 21.8641H14.3526C14.1878 21.8641 14.053 21.7294 14.053 21.5645C14.053 21.3996 14.1878 21.2648 14.3526 21.2648H17.8068C17.9977 20.7779 18.2525 20.3656 18.5672 19.9536H14.3526C14.1878 19.9536 14.053 19.8188 14.053 19.6539C14.053 19.489 14.1878 19.3542 14.3526 19.3542H19.1367C20.0358 18.5674 21.2271 18.0655 22.527 18.0655C22.6506 18.0655 22.7519 18.0767 22.9017 18.088V15.0085H20.6539C19.7848 15.0085 19.0805 14.2967 19.0805 13.4313V11H13.3337C12.5919 11 12 11.6069 12 12.3524V23.786C12 24.5316 12.5919 25.1234 13.3337 25.1234H17.8479C17.5895 24.5241 17.4471 23.8497 17.4471 23.1454C17.4433 22.7034 17.5033 22.2762 17.6082 21.8641ZM14.3526 17.481H18.1477C18.3125 17.481 18.4474 17.6159 18.4474 17.7808C18.4474 17.9457 18.3125 18.0805 18.1477 18.0805H14.3526C14.1878 18.0805 14.053 17.9457 14.053 17.7809C14.053 17.6159 14.1878 17.4811 14.3526 17.4811V17.481Z" fill="#0056B3"/>
<path d="M22.5232 18.6762C20.0544 18.6762 18.0464 20.6841 18.0464 23.1529C18.0464 25.6217 20.0544 27.6297 22.5232 27.6297C24.992 27.6297 27.0001 25.6217 27.0001 23.1529C27.0001 20.6841 24.992 18.6762 22.5232 18.6762ZM24.9172 23.2203C24.861 23.2728 24.786 23.2991 24.7148 23.2991C24.6362 23.2991 24.5575 23.2653 24.4975 23.2053L22.8267 21.4071V25.6854C22.8267 25.8503 22.6918 25.9851 22.527 25.9851C22.3622 25.9851 22.2273 25.8503 22.2273 25.6854V21.4035L20.549 23.2017C20.4366 23.3215 20.2417 23.329 20.1219 23.2166C20.0021 23.1042 19.9945 22.9131 20.1069 22.7933L22.3022 20.4368C22.3584 20.3769 22.4371 20.3432 22.5232 20.3432C22.6095 20.3432 22.6843 20.3769 22.7443 20.4368L24.9397 22.7932C25.0446 22.917 25.037 23.108 24.9172 23.2203V23.2203Z" fill="#0056B3"/>
</svg>
