<svg width="26" height="30" viewBox="0 0 26 30" fill="none" xmlns="http://www.w3.org/2000/svg">
<path d="M23.2204 5.9666C23.2197 5.85292 23.1742 5.74409 23.0938 5.66368L17.5743 0.124221C17.5348 0.084665 17.4878 0.0533234 17.4361 0.0320036C17.3845 0.0106838 17.3291 -0.000192264 17.2731 2.57211e-06H3.19014C3.07664 2.46591e-06 2.96778 0.0450485 2.88748 0.125247C2.80717 0.205446 2.76197 0.314241 2.76182 0.427737V13.1936H23.2204V5.9666ZM25.0708 14.9514H0.930176C0.697075 14.9514 0.473522 15.044 0.308695 15.2088C0.143868 15.3736 0.0512695 15.5972 0.0512695 15.8303L0.0512695 25.1057C0.0512695 25.3388 0.143868 25.5623 0.308695 25.7271C0.473522 25.892 0.697075 25.9846 0.930176 25.9846H25.0708C25.3039 25.9846 25.5275 25.892 25.6923 25.7271C25.8571 25.5623 25.9497 25.3388 25.9497 25.1057V15.8303C25.9497 15.5972 25.8571 15.3736 25.6923 15.2088C25.5275 15.044 25.3039 14.9514 25.0708 14.9514ZM9.8499 24.01C9.75549 24.0764 9.64892 24.1235 9.53628 24.1488C9.42364 24.174 9.30714 24.1768 9.19342 24.157C9.0797 24.1372 8.971 24.0952 8.87352 24.0333C8.77604 23.9715 8.69169 23.8911 8.62529 23.7967L7.06904 21.5842L5.51045 23.7973C5.37618 23.9879 5.1717 24.1173 4.94199 24.1572C4.71227 24.197 4.47615 24.1439 4.28555 24.0097C4.09495 23.8754 3.96549 23.6709 3.92566 23.4412C3.88583 23.2115 3.93888 22.9754 4.07314 22.7848L5.99502 20.0572L4.37783 17.7586C4.24372 17.5679 4.19085 17.3318 4.23085 17.1021C4.27085 16.8725 4.40044 16.6681 4.59111 16.534C4.78179 16.3999 5.01793 16.347 5.24759 16.387C5.47725 16.427 5.68161 16.5566 5.81572 16.7473L7.07021 18.5309L8.32705 16.7467C8.39281 16.6506 8.477 16.5685 8.57475 16.5052C8.67249 16.442 8.78183 16.3987 8.89643 16.3781C9.01102 16.3574 9.12857 16.3597 9.24226 16.3849C9.35595 16.41 9.46351 16.4575 9.55869 16.5246C9.65387 16.5917 9.73477 16.677 9.7967 16.7756C9.85862 16.8742 9.90034 16.9841 9.91942 17.099C9.9385 17.2139 9.93457 17.3314 9.90784 17.4447C9.88112 17.558 9.83215 17.6649 9.76377 17.7592L8.14424 20.0578L10.0632 22.7854C10.1296 22.8798 10.1768 22.9863 10.202 23.099C10.2272 23.2116 10.23 23.3281 10.2102 23.4418C10.1904 23.5556 10.1484 23.6643 10.0866 23.7617C10.0247 23.8592 9.94432 23.9436 9.8499 24.01ZM14.2556 24.1647C13.6187 24.1688 13.1815 24.1705 12.8786 24.1705C12.2376 24.1705 12.1954 24.1629 12.1286 24.1506C11.9265 24.1133 11.7438 24.0064 11.6123 23.8484C11.4809 23.6904 11.409 23.4913 11.4091 23.2857V17.2506C11.4091 17.0175 11.5017 16.7939 11.6665 16.6291C11.8313 16.4643 12.0549 16.3717 12.288 16.3717C12.5211 16.3717 12.7446 16.4643 12.9095 16.6291C13.0743 16.7939 13.1669 17.0175 13.1669 17.2506V22.4068C13.495 22.4068 13.88 22.4068 14.245 22.4022H14.2503C14.4834 22.4015 14.7072 22.4934 14.8725 22.6577C15.0379 22.822 15.1311 23.0453 15.1318 23.2784C15.1325 23.5115 15.0406 23.7354 14.8763 23.9007C14.7119 24.066 14.4887 24.1593 14.2556 24.16V24.1647ZM22.0368 22.1367C21.8265 23.315 20.7067 24.1699 19.3737 24.1699C18.3044 24.1699 17.3001 23.7387 16.6198 22.9863C16.4633 22.8136 16.3817 22.5858 16.3931 22.3529C16.4046 22.1201 16.508 21.9013 16.6808 21.7447C16.8535 21.5882 17.0813 21.5066 17.3142 21.5181C17.547 21.5295 17.7658 21.6329 17.9224 21.8057C18.2669 22.1854 18.8101 22.4121 19.3755 22.4121C19.887 22.4121 20.2579 22.1092 20.3083 21.8262C20.3733 21.46 19.781 21.2104 19.5958 21.1424C18.6583 20.7955 17.8204 20.424 17.7853 20.4082C17.7429 20.3895 17.7021 20.3674 17.6634 20.342C17.3328 20.1291 17.0708 19.8252 16.9089 19.4669C16.7469 19.1086 16.6919 18.7111 16.7505 18.3223C16.8729 17.4674 17.4958 16.7713 18.3765 16.5059C20.0897 15.9902 21.4978 17.1504 21.5569 17.2008L20.4255 18.5484L20.4313 18.5537C20.4243 18.5479 19.6767 17.9525 18.8833 18.1916C18.5646 18.2877 18.5019 18.491 18.4901 18.5742C18.4813 18.6231 18.4851 18.6735 18.5011 18.7205C18.5171 18.7676 18.5447 18.8098 18.5815 18.8432C18.8101 18.9428 19.4821 19.2316 20.2022 19.4971C21.7978 20.0836 22.1962 21.2455 22.0368 22.1367ZM2.76182 29.5723C2.76197 29.6858 2.80717 29.7946 2.88748 29.8748C2.96778 29.955 3.07664 30 3.19014 30H22.7921C22.9056 30 23.0144 29.955 23.0948 29.8748C23.1751 29.7946 23.2203 29.6858 23.2204 29.5723V27.7424H2.76182V29.5723Z" fill="white"/>
</svg>
