<svg width="22" height="21" viewBox="0 0 22 21" fill="none" xmlns="http://www.w3.org/2000/svg">
<path d="M9.89822 3.59232C10.3046 3.53223 10.7239 3.5 11.1557 3.5C16.2607 3.5 19.6106 8.00484 20.736 9.78682C20.8722 10.0025 20.9403 10.1103 20.9784 10.2767C21.007 10.4016 21.007 10.5987 20.9784 10.7236C20.9402 10.8899 20.8716 10.9985 20.7345 11.2156C20.4346 11.6901 19.9774 12.3571 19.3718 13.0805M5.8796 5.21504C3.71752 6.6817 2.24972 8.71938 1.57638 9.78528C1.43956 10.0019 1.37115 10.1102 1.33301 10.2765C1.30437 10.4014 1.30436 10.5984 1.33299 10.7234C1.3711 10.8897 1.4392 10.9975 1.57541 11.2132C2.70081 12.9952 6.05069 17.5 11.1557 17.5C13.2141 17.5 14.9872 16.7676 16.4441 15.7766M2.15569 1.5L20.1557 19.5M9.03437 8.37868C8.49148 8.92157 8.15569 9.67157 8.15569 10.5C8.15569 12.1569 9.49883 13.5 11.1557 13.5C11.9841 13.5 12.7341 13.1642 13.277 12.6213" stroke="#9A9A9A" stroke-width="2" stroke-linecap="round" stroke-linejoin="round"/>
</svg>
