<svg width="19" height="19" viewBox="0 0 19 19" fill="none" xmlns="http://www.w3.org/2000/svg">
<g clip-path="url(#clip0_445_619)">
<path d="M11.8588 9.65999L12.9379 8.58085C13.0165 8.87461 13.0625 9.18173 13.0625 9.49998C13.0625 11.4644 11.4644 13.0625 9.49998 13.0625C9.18173 13.0625 8.87462 13.0165 8.58086 12.9379L9.66 11.8588C10.2304 11.8201 10.7674 11.576 11.1717 11.1717C11.576 10.7674 11.8201 10.2304 11.8588 9.65999ZM18.9252 9.21156C18.8521 9.08019 17.8163 7.26525 15.7917 5.72714L14.9276 6.59119C16.404 7.67672 17.3394 8.94274 17.7077 9.50087C17.0039 10.5724 14.2433 14.25 9.49998 14.25C8.78867 14.25 8.12723 14.159 7.50483 14.0138L6.52915 14.9895C7.42616 15.2645 8.41208 15.4375 9.49998 15.4375C15.7155 15.4375 18.7971 10.0189 18.9252 9.78839C18.9742 9.70018 19 9.60091 19 9.49998C19 9.39904 18.9742 9.29977 18.9252 9.21156ZM16.451 3.38851L3.38851 16.451C3.27258 16.5669 3.12058 16.625 2.96873 16.625C2.81688 16.625 2.66488 16.5669 2.54895 16.451C2.49378 16.3959 2.45002 16.3305 2.42016 16.2584C2.3903 16.1864 2.37493 16.1092 2.37493 16.0312C2.37493 15.9533 2.3903 15.876 2.42016 15.804C2.45002 15.732 2.49378 15.6665 2.54895 15.6114L4.21086 13.9495C1.52414 12.3276 0.15896 9.93994 0.0747957 9.78839C0.0257428 9.70015 0 9.60086 0 9.4999C0 9.39894 0.0257428 9.29965 0.0747957 9.21141C0.202897 8.98104 3.28446 3.56248 9.49998 3.56248C11.1071 3.56248 12.4992 3.92912 13.6892 4.47121L15.6115 2.54894C15.8435 2.31694 16.2192 2.31694 16.451 2.54894C16.6829 2.78095 16.683 3.15665 16.451 3.38851ZM5.09629 13.0641L6.59951 11.5609C6.18433 10.9784 5.93748 10.2681 5.93748 9.49998C5.93748 7.53555 7.53556 5.93748 9.49998 5.93748C10.2681 5.93748 10.9784 6.18433 11.5609 6.59936L12.7764 5.3838C11.8161 4.9992 10.7247 4.74998 9.49998 4.74998C4.75666 4.74998 1.99602 8.42751 1.29243 9.49909C1.73923 10.1763 3.02351 11.8904 5.09629 13.0641ZM7.46149 10.6988L10.6988 7.46148C10.3456 7.25293 9.93906 7.12498 9.49998 7.12498C8.19047 7.12498 7.12498 8.19046 7.12498 9.49998C7.12498 9.93905 7.25294 10.3456 7.46149 10.6988Z" fill="#9A9A9A"/>
</g>
<defs>
<clipPath id="clip0_445_619">
<rect width="19" height="19" fill="white"/>
</clipPath>
</defs>
</svg>
