<svg width="19" height="19" viewBox="0 0 19 19" fill="none" xmlns="http://www.w3.org/2000/svg">
<g id="svgexport-5 (39) 1">
<g id="Group">
<path id="Vector" d="M18.8792 9.13045C18.7095 8.89825 14.6652 3.44507 9.49988 3.44507C4.33459 3.44507 0.290117 8.89825 0.120565 9.13023C0.042219 9.23756 0 9.36701 0 9.49989C0 9.63277 0.042219 9.76222 0.120565 9.86956C0.290117 10.1017 4.33459 15.5549 9.49988 15.5549C14.6652 15.5549 18.7095 10.1017 18.8792 9.86974C18.9577 9.76246 18.9999 9.633 18.9999 9.50009C18.9999 9.36719 18.9577 9.23773 18.8792 9.13045ZM9.49988 14.3022C5.6951 14.3022 2.39975 10.6828 1.42425 9.49957C2.39849 8.3153 5.68693 4.69781 9.49988 4.69781C13.3045 4.69781 16.5996 8.31656 17.5755 9.50043C16.6013 10.6847 13.3128 14.3022 9.49988 14.3022Z" fill="#9A9A9A"/>
<path id="Vector_2" d="M9.49995 5.74176C7.42769 5.74176 5.7417 7.42775 5.7417 9.50001C5.7417 11.5723 7.42769 13.2583 9.49995 13.2583C11.5722 13.2583 13.2582 11.5723 13.2582 9.50001C13.2582 7.42775 11.5722 5.74176 9.49995 5.74176ZM9.49995 12.0055C8.11837 12.0055 6.99447 10.8816 6.99447 9.50001C6.99447 8.11847 8.11841 6.99454 9.49995 6.99454C10.8815 6.99454 12.0054 8.11847 12.0054 9.50001C12.0054 10.8816 10.8815 12.0055 9.49995 12.0055Z" fill="#9A9A9A"/>
</g>
</g>
</svg>
