<svg width="18" height="18" viewBox="0 0 18 18" fill="none" xmlns="http://www.w3.org/2000/svg">
<g id="svgexport-5 (29) 1">
<g id="Group">
<path id="Vector" d="M6.85547 8.47266C7.14621 8.47266 7.38281 8.70926 7.38281 9C7.38281 9.29074 7.14621 9.52734 6.85547 9.52734C6.56473 9.52734 6.32812 9.29074 6.32812 9C6.32812 8.70926 6.56473 8.47266 6.85547 8.47266Z" fill="white"/>
<path id="Vector_2" d="M7.38281 6.41602V7.50867C7.21352 7.44847 7.03515 7.41779 6.85547 7.41797C5.98324 7.41797 5.27344 8.12777 5.27344 9C5.27344 9.87223 5.98324 10.582 6.85547 10.582C7.04039 10.582 7.21793 10.55 7.38281 10.4913V11.584C7.2102 11.6191 7.03371 11.6367 6.85547 11.6367C5.40176 11.6367 4.21875 10.4537 4.21875 9C4.21875 7.54629 5.40176 6.36328 6.85547 6.36328C7.03371 6.36328 7.2102 6.38086 7.38281 6.41602Z" fill="white"/>
<path id="Vector_3" d="M3.16406 9C3.16406 11.0355 4.81992 12.6914 6.85547 12.6914C7.03301 12.6914 7.20914 12.6791 7.38281 12.6538V15.8555H5.80078C5.50969 15.8555 5.27344 15.6192 5.27344 15.3281V14.5814C4.84207 14.4587 4.42617 14.285 4.02996 14.0625L3.49945 14.5934C3.29344 14.7994 2.9598 14.7994 2.75379 14.5934L1.26211 13.1017C1.05602 12.8956 1.05683 12.5613 1.26211 12.356L1.79297 11.8252C1.57163 11.4327 1.39745 11.0154 1.27406 10.582H0.527344C0.23625 10.582 0 10.3458 0 10.0547V7.94531C0 7.65422 0.23625 7.41797 0.527344 7.41797H1.27406C1.39676 6.9866 1.57008 6.5707 1.79297 6.17449L1.26211 5.64398C1.05683 5.43871 1.05602 5.10441 1.26211 4.89832L2.75379 3.40664C2.9598 3.20063 3.29344 3.20063 3.49945 3.40664L4.03031 3.9375C4.4228 3.71616 4.84007 3.54198 5.27344 3.41859V2.67188C5.27344 2.38078 5.50969 2.14453 5.80078 2.14453H7.38281V5.34621C7.20914 5.3209 7.03301 5.30859 6.85547 5.30859C4.81992 5.30859 3.16406 6.96445 3.16406 9ZM14.8359 2.4532V5.30859H17.6913L14.8359 2.4532ZM10.0195 5.30859H12.1992C12.4903 5.30859 12.7266 5.54484 12.7266 5.83594C12.7266 6.12703 12.4903 6.36328 12.1992 6.36328H10.0195C9.72844 6.36328 9.49219 6.12703 9.49219 5.83594C9.49219 5.54484 9.72844 5.30859 10.0195 5.30859ZM15.3633 12.6914H10.0195C9.72844 12.6914 9.49219 12.4552 9.49219 12.1641C9.49219 11.873 9.72844 11.6367 10.0195 11.6367H15.3633C15.6544 11.6367 15.8906 11.873 15.8906 12.1641C15.8906 12.4552 15.6544 12.6914 15.3633 12.6914ZM15.3633 10.582H10.0195C9.72844 10.582 9.49219 10.3458 9.49219 10.0547C9.49219 9.76359 9.72844 9.52734 10.0195 9.52734H15.3633C15.6544 9.52734 15.8906 9.76359 15.8906 10.0547C15.8906 10.3458 15.6544 10.582 15.3633 10.582ZM15.3633 8.47266H10.0195C9.72844 8.47266 9.49219 8.23641 9.49219 7.94531C9.49219 7.65422 9.72844 7.41797 10.0195 7.41797H15.3633C15.6544 7.41797 15.8906 7.65422 15.8906 7.94531C15.8906 8.23641 15.6544 8.47266 15.3633 8.47266ZM14.3086 6.36328C14.0175 6.36328 13.7812 6.12703 13.7812 5.83594V2.14453H8.4375V15.8555H17.4727C17.7638 15.8555 18 15.6192 18 15.3281V6.36328H14.3086Z" fill="white"/>
</g>
</g>
</svg>
