<svg width="27" height="27" viewBox="0 0 27 27" fill="none" xmlns="http://www.w3.org/2000/svg">
<path d="M25.3125 11.8125H1.6875C0.755525 11.8125 0 12.568 0 13.5C0 14.432 0.755525 15.1875 1.6875 15.1875H25.3125C26.2445 15.1875 27 14.432 27 13.5C27 12.568 26.2445 11.8125 25.3125 11.8125Z" fill="#32363F"/>
<path d="M1.6875 7.31253H25.3125C26.2445 7.31253 27 6.55701 27 5.62503C27 4.69306 26.2445 3.93753 25.3125 3.93753H1.6875C0.755525 3.93753 0 4.69306 0 5.62503C0 6.55701 0.755525 7.31253 1.6875 7.31253Z" fill="#32363F"/>
<path d="M25.3125 19.6875H1.6875C0.755525 19.6875 0 20.443 0 21.375C0 22.307 0.755525 23.0625 1.6875 23.0625H25.3125C26.2445 23.0625 27 22.307 27 21.375C27 20.443 26.2445 19.6875 25.3125 19.6875Z" fill="#32363F"/>
</svg>
