<svg width="166" height="24" viewBox="0 0 166 24" fill="none" xmlns="http://www.w3.org/2000/svg">
<g id="logo_(1) 1" clip-path="url(#clip0_349_4001)">
<path id="Vector" d="M5.63613 0.305145V19.1513H13.744V23.882H0.294922V0.305145H5.63613Z" fill="white"/>
<path id="Vector_2" d="M21.7762 0.305145V23.882H16.4351V0.305145H21.7762Z" fill="white"/>
<path id="Vector_3" d="M30.575 0.305145V19.1513H38.6828V23.882H25.2339V0.305145H30.575Z" fill="white"/>
<path id="Vector_4" d="M38.7988 0.305145H45.2544L50.1346 7.84361L55.053 0.305145H61.5085L52.8243 13.3051V23.882H47.4832V13.3051L38.7988 0.305145Z" fill="white"/>
<path id="Vector_5" d="M67.7398 14.4205V23.882H62.3984V0.305145H67.7398V9.68977H75.3481V0.305145H80.7276V23.882H75.3481V14.4205H67.7398Z" fill="white"/>
<path id="Vector_6" d="M96.1165 0.305145L105.608 23.882H99.8438L98.1146 19.1513H89.1615L87.3938 23.882H81.6299L91.1596 0.305145H96.1165ZM96.2702 14.459L93.6573 7.57437H93.6188L90.9674 14.459H96.2702Z" fill="white"/>
<path id="Vector_7" d="M111.903 9.26668V23.882H106.562V0.305145H111.903L121.279 14.9205H121.318V0.305145H126.697V23.882H121.318L111.98 9.26668H111.903Z" fill="white"/>
<path id="Vector_8" d="M149.907 0.305145L159.398 23.882H153.634L151.905 19.1513H142.952L141.184 23.882H135.42L144.95 0.305145H149.907ZM150.061 14.459L147.448 7.57437H147.409L144.758 14.459H150.061Z" fill="white"/>
<path id="Vector_9" d="M165.694 0.305145V23.882H160.353V0.305145H165.694Z" fill="white"/>
</g>
<defs>
<clipPath id="clip0_349_4001">
<rect width="166" height="24" fill="white"/>
</clipPath>
</defs>
</svg>
