<svg width="17" height="17" viewBox="0 0 17 17" fill="none" xmlns="http://www.w3.org/2000/svg">
<g id="svgexport-5 (28) 1">
<g id="Group">
<path id="Vector" d="M15.5059 2.02539H5.47852C4.65441 2.02539 3.98438 2.69576 3.98438 3.51953C3.98438 4.34363 4.65441 5.01367 5.47852 5.01367H15.5059C16.3296 5.01367 17 4.34363 17 3.51953C17 2.69576 16.3296 2.02539 15.5059 2.02539ZM15.5059 7.00586H5.47852C4.65441 7.00586 3.98438 7.67623 3.98438 8.5C3.98438 9.3241 4.65441 9.99414 5.47852 9.99414H15.5059C16.3296 9.99414 17 9.3241 17 8.5C17 7.67623 16.3296 7.00586 15.5059 7.00586ZM15.5059 11.9863H5.47852C4.65441 11.9863 3.98438 12.6567 3.98438 13.4805C3.98438 14.3046 4.65441 14.9746 5.47852 14.9746H15.5059C16.3296 14.9746 17 14.3046 17 13.4805C17 12.6567 16.3296 11.9863 15.5059 11.9863ZM1.49414 2.02539C0.670039 2.02539 0 2.69576 0 3.51953C0 4.34363 0.670039 5.01367 1.49414 5.01367C2.31791 5.01367 2.98828 4.34363 2.98828 3.51953C2.98828 2.69576 2.31791 2.02539 1.49414 2.02539ZM1.49414 7.00586C0.670039 7.00586 0 7.67623 0 8.5C0 9.3241 0.670039 9.99414 1.49414 9.99414C2.31791 9.99414 2.98828 9.3241 2.98828 8.5C2.98828 7.67623 2.31791 7.00586 1.49414 7.00586ZM1.49414 11.9863C0.670039 11.9863 0 12.6567 0 13.4805C0 14.3046 0.670039 14.9746 1.49414 14.9746C2.31791 14.9746 2.98828 14.3046 2.98828 13.4805C2.98828 12.6567 2.31791 11.9863 1.49414 11.9863Z" fill="white"/>
</g>
</g>
</svg>
