<svg width="29" height="32" viewBox="0 0 29 32" fill="none" xmlns="http://www.w3.org/2000/svg">
<path d="M16.3567 6.44364H19.8265L14.5156 0.856842V4.59545C14.5156 5.60823 15.337 6.4437 16.3566 6.4437L16.3567 6.44364Z" fill="white"/>
<path d="M10.6003 20.5347H4.44682C4.13526 20.5347 3.88036 20.28 3.88036 19.9683C3.88036 19.6567 4.13526 19.4018 4.44682 19.4018H10.9755C11.3365 18.4814 11.818 17.7023 12.413 16.9234H4.44682C4.13526 16.9234 3.88036 16.6687 3.88036 16.3569C3.88036 16.0454 4.13526 15.7905 4.44682 15.7905H13.4893C15.1886 14.3034 17.4404 13.3548 19.8975 13.3548C20.1311 13.3548 20.3224 13.3759 20.6057 13.3972V7.57655H16.357C14.7143 7.57655 13.3831 6.23122 13.3831 4.59545V0H2.52085C1.11873 0 0 1.14704 0 2.55615V24.1673C0 25.5764 1.11873 26.6952 2.52091 26.6952H11.0533C10.5648 25.5623 10.2958 24.2877 10.2958 22.9565C10.2886 22.121 10.402 21.3136 10.6003 20.5347ZM4.44682 12.25H11.62C11.9315 12.25 12.1864 12.5049 12.1864 12.8167C12.1864 13.1282 11.9315 13.3831 11.62 13.3831H4.44682C4.13526 13.3831 3.88036 13.1282 3.88036 12.8167C3.88036 12.5049 4.13526 12.2501 4.44682 12.2501V12.25Z" fill="white"/>
<path d="M19.8899 14.509C15.2237 14.509 11.4282 18.3042 11.4282 22.9706C11.4282 27.6369 15.2237 31.4323 19.8899 31.4323C24.5564 31.4323 28.3519 27.6369 28.3519 22.9706C28.3519 18.3042 24.5564 14.509 19.8899 14.509ZM24.4149 23.098C24.3087 23.1972 24.167 23.2469 24.0325 23.2469C23.8838 23.2469 23.7351 23.1831 23.6216 23.0697L20.4636 19.6709V27.7573C20.4636 28.069 20.2087 28.3239 19.8972 28.3239C19.5857 28.3239 19.3308 28.069 19.3308 27.7573V19.6639L16.1585 23.0627C15.9461 23.2893 15.5777 23.3035 15.3511 23.091C15.1247 22.8786 15.1104 22.5174 15.3228 22.2908L19.4723 17.8368C19.5785 17.7236 19.7272 17.6598 19.89 17.6598C20.053 17.6598 20.1945 17.7237 20.308 17.8368L24.4574 22.2907C24.6557 22.5246 24.6414 22.8857 24.4149 23.098V23.098Z" fill="white"/>
</svg>
