<svg width="32" height="32" viewBox="0 0 32 32" fill="none" xmlns="http://www.w3.org/2000/svg">
<path d="M20.2502 0.770844H11.7502C11.3252 0.770844 10.9087 0.78501 10.5049 0.804844C10.4487 0.789169 10.3914 0.777803 10.3335 0.770844C10.2067 0.773051 10.0814 0.7985 9.96375 0.845927C3.55191 1.34459 0.770996 4.68226 0.770996 11.75V20.25C0.770996 27.3178 3.55191 30.6554 9.96375 31.1583C10.0816 31.2043 10.207 31.2283 10.3335 31.2292C10.3914 31.2222 10.4487 31.2109 10.5049 31.1952C10.9087 31.215 11.3195 31.2292 11.7502 31.2292H20.2502C27.9455 31.2292 31.2293 27.9468 31.2293 20.25V11.75C31.2293 4.05326 27.9455 0.770844 20.2502 0.770844ZM9.271 28.9625C4.6215 28.376 2.896 25.8813 2.896 20.2528V11.75C2.896 6.12159 4.6215 3.62684 9.271 3.04034V28.9625ZM29.1043 20.25C29.1043 26.7865 26.7867 29.1042 20.2502 29.1042H11.7502C11.6269 29.1042 11.5164 29.1042 11.396 29.0957V2.90434C11.5164 2.90434 11.6269 2.89584 11.7502 2.89584H20.2502C26.7867 2.89584 29.1043 5.21351 29.1043 11.75V20.25ZM21.001 13.1256L18.1252 16L20.9996 18.8744C21.1011 18.9724 21.1821 19.0896 21.2378 19.2192C21.2936 19.3488 21.323 19.4882 21.3243 19.6293C21.3256 19.7704 21.2987 19.9103 21.2454 20.0409C21.192 20.1715 21.1132 20.2902 21.0135 20.39C20.9137 20.4898 20.7952 20.5687 20.6646 20.6222C20.534 20.6757 20.3942 20.7026 20.2531 20.7015C20.112 20.7003 19.9726 20.6711 19.8429 20.6155C19.7133 20.5598 19.596 20.4789 19.4979 20.3775L15.8712 16.7508C15.7726 16.6523 15.6943 16.5353 15.6408 16.4064C15.5874 16.2776 15.5599 16.1395 15.5599 16C15.5599 15.8605 15.5874 15.7224 15.6408 15.5936C15.6943 15.4648 15.7726 15.3477 15.8712 15.2492L19.4979 11.6225C19.6984 11.4291 19.9668 11.3221 20.2454 11.3246C20.524 11.3272 20.7904 11.4391 20.9873 11.6361C21.1842 11.8332 21.2959 12.0998 21.2982 12.3784C21.3004 12.657 21.1946 12.9253 21.001 13.1256Z" fill="white"/>
</svg>
