<svg width="18" height="18" viewBox="0 0 18 18" fill="none" xmlns="http://www.w3.org/2000/svg">
<g id="svgexport-5 (31) 1" clip-path="url(#clip0_361_1249)">
<g id="Group">
<path id="Vector" d="M16.839 12.2989V12.102C16.839 11.103 16.2231 10.2261 15.3056 9.92404C14.4112 9.63379 13.5056 9.84304 12.8784 10.4697C12.6612 10.6847 12.4888 10.9407 12.3711 11.2228C12.2535 11.5049 12.1931 11.8076 12.1933 12.1133V12.2989C11.52 12.543 11.0323 13.182 11.0323 13.9364V16.2595C11.0338 16.721 11.2178 17.1632 11.5442 17.4895C11.8706 17.8158 12.3129 17.9996 12.7744 18.001H16.2579C16.7196 17.9996 17.1619 17.8157 17.4883 17.4893C17.8147 17.1629 17.9987 16.7205 18 16.2589V13.9364C18 13.1815 17.5123 12.5425 16.839 12.2989ZM15.0503 15.6902C15.0908 15.8292 14.9923 15.9749 14.8534 15.9749H14.1795C14.04 15.9749 13.9416 15.8292 13.9821 15.6902L14.0805 15.3415C14.009 15.2635 13.9565 15.1699 13.9274 15.0682C13.8982 14.9665 13.893 14.8594 13.9123 14.7554C13.959 14.4938 14.1559 14.2789 14.4056 14.2322C14.7949 14.163 15.1312 14.4764 15.1312 14.8774C15.1312 15.063 15.0621 15.22 14.9513 15.3415L15.0503 15.6902ZM15.6774 12.1943H13.3549V12.1133C13.3549 11.8056 13.4769 11.5092 13.698 11.2943C14.0107 10.9754 14.4816 10.8764 14.9456 11.0271C15.3754 11.1728 15.6774 11.6138 15.6774 12.1015V12.1943ZM4.99331 11.0333C5.52262 13.5308 6.57394 15.0979 7.54819 15.0979C8.52244 15.0979 9.57375 13.5308 10.1036 11.0333H4.99331ZM4.64513 7.54973C4.64513 8.37379 4.698 9.15116 4.7925 9.87173H10.3044C10.3984 9.15173 10.4518 8.37379 10.4518 7.54916C10.4518 6.72454 10.3984 5.94773 10.3044 5.2266H4.7925C4.69307 5.99696 4.64384 6.77298 4.64513 7.54973ZM11.2978 4.0656H14.2408C13.3318 2.32341 11.7805 1.00342 9.91519 0.385164C10.5272 1.2936 11.007 2.55641 11.2978 4.0656ZM7.54875 0.000976562C6.57394 0.000976562 5.52262 1.5681 4.99331 4.0656H10.1036C9.57375 1.5681 8.523 0.000976562 7.54819 0.000976562H7.54875ZM3.79913 11.0333H0.855563C1.76431 12.7771 3.31672 14.0983 5.18344 14.7165C4.57031 13.8075 4.08938 12.543 3.79913 11.0333ZM3.79913 4.0656C4.08994 2.55698 4.56975 1.2936 5.18175 0.385164C3.31648 1.00342 1.7651 2.32341 0.856125 4.0656H3.79913ZM15.0969 7.54973C15.0969 7.9266 15.0677 8.30404 15.0098 8.67023C13.9123 8.5071 12.8441 8.85585 12.0656 9.63998C11.991 9.71459 11.9193 9.79209 11.8507 9.87229H11.4739C11.5605 9.13485 11.6128 8.36254 11.6128 7.54916C11.6128 6.73579 11.5605 5.96404 11.4733 5.22716H14.5164C14.5856 5.22716 14.6497 5.20973 14.7133 5.1861C14.9657 5.94866 15.0952 6.7465 15.0969 7.54973ZM0.5805 9.87173H3.62363C3.43825 8.3289 3.43825 6.76943 3.62363 5.2266H0.5805C0.510187 5.2266 0.444937 5.20973 0.3825 5.18723C0.129891 5.94931 0.000761195 6.74687 0 7.54973C0 8.37435 0.140063 9.16748 0.385312 9.91166C0.447188 9.88916 0.511312 9.87173 0.5805 9.87173Z" fill="white"/>
</g>
</g>
<defs>
<clipPath id="clip0_361_1249">
<rect width="18" height="18" fill="white" transform="translate(0 0.000976562)"/>
</clipPath>
</defs>
</svg>
