<svg width="10" height="10" viewBox="0 0 10 10" fill="none" xmlns="http://www.w3.org/2000/svg">
<g clip-path="url(#clip0_361_1169)">
<g clip-path="url(#clip1_361_1169)">
<path fill-rule="evenodd" clip-rule="evenodd" d="M5 0C7.76143 0 10 2.23857 10 5C10 7.76143 7.76143 10 5 10C2.23857 10 0 7.76143 0 5C0 2.23857 2.23857 0 5 0ZM3.94043 2.8217C4.19356 2.69914 4.46597 2.62124 4.74563 2.59145C5.23777 2.53896 5.74975 2.6366 6.21055 2.90234C6.67299 3.16934 7.03225 3.5766 7.23666 4.07008C7.43807 4.55631 7.47998 5.1043 7.3393 5.62762C7.29184 5.80523 7.39736 5.98771 7.57498 6.03516C7.7526 6.08262 7.93508 5.97711 7.98254 5.79949C8.16139 5.13422 8.10781 4.43686 7.85125 3.81748C7.59998 3.21088 7.15498 2.67963 6.54391 2.32684C5.98912 1.99871 5.31473 1.86182 4.67533 1.92998C4.28452 1.97173 3.90521 2.08745 3.55766 2.27098L3.64385 1.86498C3.68195 1.68519 3.56711 1.50855 3.38734 1.47045C3.20756 1.43234 3.03092 1.54719 2.99281 1.72697L2.72609 2.98336C2.68537 3.17549 2.81951 3.36055 3.01387 3.38299L4.28945 3.53309C4.47211 3.55395 4.63709 3.42277 4.65795 3.24012C4.67881 3.05746 4.54764 2.89248 4.36498 2.87162L3.94043 2.8217ZM6.35617 8.13502C6.31807 8.3148 6.43291 8.49145 6.61268 8.52955C6.79246 8.56766 6.9691 8.45281 7.00721 8.27305L7.27393 7.01666C7.31465 6.82453 7.18051 6.63945 6.98615 6.61705L5.71057 6.46695C5.52791 6.44609 5.36293 6.57727 5.34207 6.75992C5.32121 6.94258 5.45238 7.10756 5.63504 7.12842L6.05871 7.17822C5.80714 7.30028 5.53641 7.37806 5.25842 7.40814C4.76521 7.46145 4.25146 7.36441 3.78943 7.09766C3.309 6.82027 2.95979 6.40418 2.76334 5.9299C2.56193 5.44369 2.52002 4.89568 2.6607 4.37238C2.70816 4.19477 2.60266 4.01229 2.42502 3.96484C2.2474 3.91738 2.06492 4.02289 2.01746 4.20051C1.83861 4.86578 1.89219 5.56314 2.14875 6.18252C2.40004 6.78912 2.84502 7.32037 3.45611 7.67318C4.04572 8.01359 4.70059 8.1375 5.32873 8.06961C5.718 8.02751 6.09581 7.91219 6.44223 7.72971L6.35617 8.13502Z" fill="#FF6E01"/>
</g>
</g>
<defs>
<clipPath id="clip0_361_1169">
<rect width="10" height="10" fill="white"/>
</clipPath>
<clipPath id="clip1_361_1169">
<rect width="10" height="10" fill="white" transform="matrix(1 0 0 -1 0 10)"/>
</clipPath>
</defs>
</svg>
