<svg width="21" height="18" viewBox="0 0 21 18" fill="none" xmlns="http://www.w3.org/2000/svg">
<g id="Group">
<path id="Vector" d="M13.6744 17.5945C13.4658 17.6925 13.2337 17.7464 12.9892 17.7464H1.62745C0.72945 17.7464 0 17.0184 0 16.119C0 14.2567 0.755699 12.5712 1.97559 11.3499C3.19549 10.1286 4.88234 9.37433 6.74465 9.37433H7.87198C8.5517 9.37433 9.20931 9.47518 9.82824 9.66169L9.82271 9.67136C9.62929 10.0071 9.57818 10.398 9.67765 10.7724C9.7785 11.1468 10.0189 11.4604 10.3546 11.6539L10.5093 11.7437C10.4914 11.9233 10.4817 12.1042 10.4817 12.2852C10.4817 12.4662 10.4914 12.6472 10.5093 12.8268L10.3546 12.9166C10.0189 13.11 9.7785 13.4236 9.67765 13.798C9.57818 14.1724 9.62929 14.5634 9.82271 14.8991L10.5812 16.2115C10.8395 16.6592 11.3217 16.9382 11.8384 16.9382C12.0926 16.9382 12.3426 16.8705 12.5637 16.7434L12.7184 16.6536C13.0127 16.865 13.3277 17.0474 13.6578 17.1952V17.3748C13.6578 17.4494 13.6634 17.5226 13.6744 17.5945Z" fill="white"/>
<path id="Vector_2" d="M7.30846 7.93722C9.32659 7.93722 10.9626 6.3012 10.9626 4.28307C10.9626 2.26493 9.32659 0.628906 7.30846 0.628906C5.29032 0.628906 3.6543 2.26493 3.6543 4.28307C3.6543 6.3012 5.29032 7.93722 7.30846 7.93722Z" fill="white"/>
<path id="Vector_3" d="M20.8268 13.8733L19.9992 13.3953C20.0945 13.0403 20.1457 12.6686 20.1457 12.2846C20.1457 11.9005 20.0945 11.5275 19.9992 11.1738L20.8268 10.6958C20.9925 10.6005 21.0492 10.3891 20.9539 10.2233L20.1954 8.91086C20.1727 8.87147 20.1425 8.83694 20.1065 8.80923C20.0705 8.78152 20.0294 8.76119 19.9855 8.74938C19.9416 8.73758 19.8958 8.73454 19.8508 8.74044C19.8057 8.74634 19.7623 8.76106 19.7229 8.78376L18.8954 9.26177C18.3704 8.73679 17.71 8.34719 16.9709 8.14963V7.19499C16.9709 7.10339 16.9345 7.01554 16.8697 6.95077C16.805 6.886 16.7171 6.84961 16.6255 6.84961H15.11C15.0184 6.84961 14.9305 6.886 14.8657 6.95077C14.801 7.01554 14.7646 7.10339 14.7646 7.19499V8.14963C14.036 8.34367 13.372 8.72742 12.8401 9.26177L12.0126 8.78376C11.8468 8.68843 11.6354 8.74507 11.5401 8.91086L10.7816 10.2233C10.6863 10.3891 10.7429 10.6005 10.9087 10.6958L11.7363 11.1738C11.6409 11.5289 11.5898 11.9005 11.5898 12.2846C11.5898 12.6686 11.6409 13.0416 11.7363 13.3953L10.9087 13.8733C10.7429 13.9687 10.6863 14.18 10.7816 14.3458L11.5401 15.6583C11.6354 15.8241 11.8468 15.8807 12.0126 15.7854L12.8401 15.3074C13.3651 15.8323 14.0255 16.2219 14.7646 16.4195V17.3741C14.7646 17.4657 14.801 17.5536 14.8657 17.6184C14.9305 17.6831 15.0184 17.7195 15.11 17.7195H16.6255C16.7171 17.7195 16.805 17.6831 16.8697 17.6184C16.9345 17.5536 16.9709 17.4657 16.9709 17.3741V16.4195C17.6994 16.2255 18.3635 15.8417 18.8954 15.3074L19.7229 15.7854C19.8887 15.8807 20.1001 15.8241 20.1954 15.6583L20.9539 14.3458C21.0492 14.18 20.9925 13.9687 20.8268 13.8733ZM15.867 14.0294C14.9027 14.0294 14.1222 13.2475 14.1222 12.2846C14.1222 11.3203 14.9041 10.5397 15.867 10.5397C16.83 10.5397 17.6119 11.3216 17.6119 12.2846C17.6119 13.2475 16.8314 14.0294 15.867 14.0294Z" fill="white"/>
</g>
</svg>
