<svg width="22" height="22" viewBox="0 0 22 22" fill="none" xmlns="http://www.w3.org/2000/svg">
<g id="svgexport-5 (24) 1">
<g id="Group">
<path id="Vector" fill-rule="evenodd" clip-rule="evenodd" d="M9.87383 17.8274C9.24877 17.8743 8.59143 17.8994 7.91278 17.8994C3.78 17.8994 0.429688 16.9727 0.429688 15.8296V12.8544C0.998594 13.3555 1.90949 13.6509 2.48398 13.8098C4.40412 14.3409 6.70575 14.4781 8.70581 14.424V14.8192C8.70581 15.3447 9.13335 15.7723 9.6589 15.7723H9.88015C9.9778 16.0773 10.1007 16.3737 10.2475 16.6583L10.0908 16.815C9.81754 17.0883 9.74523 17.4875 9.87383 17.8275V17.8274ZM15.3959 10.432C13.4216 10.432 11.8211 12.0325 11.8211 14.0068C11.8211 15.9811 13.4216 17.5815 15.3959 17.5815C17.3702 17.5815 18.9706 15.9811 18.9706 14.0068C18.9706 12.0325 17.3702 10.432 15.3959 10.432ZM14.8573 12.4493C14.8573 12.1519 15.0984 11.9108 15.3959 11.9108C15.6933 11.9108 15.9344 12.1519 15.9344 12.4493V13.4682H16.9533C17.2507 13.4682 17.4918 13.7093 17.4918 14.0067C17.4918 14.3042 17.2507 14.5453 16.9533 14.5453H15.9344V15.5642C15.9344 15.8616 15.6933 16.1027 15.3959 16.1027C15.0984 16.1027 14.8573 15.8616 14.8573 15.5642V14.5453H13.8384C13.541 14.5453 13.2999 14.3042 13.2999 14.0067C13.2999 13.7093 13.541 13.4682 13.8384 13.4682H14.8573V12.4493ZM20.521 15.2566H21.1329C21.3738 15.2566 21.5704 15.0601 21.5704 14.8192V13.1943C21.5704 12.9534 21.3738 12.7569 21.1329 12.7569H20.521C20.3932 12.2313 20.1848 11.7287 19.9033 11.2669L20.3363 10.8339C20.5067 10.6635 20.5067 10.3856 20.3363 10.2153L19.1874 9.06631C19.017 8.89594 18.7391 8.89594 18.5687 9.06631L18.1358 9.49918C17.674 9.21758 17.1713 9.00916 16.6458 8.88133V8.26975C16.6458 8.02883 16.4492 7.83229 16.2083 7.83229H14.5834C14.3425 7.83229 14.146 8.02879 14.146 8.26975V8.88163C13.6204 9.00945 13.1178 9.2178 12.656 9.4993L12.223 9.06631C12.0526 8.89594 11.7747 8.89594 11.6044 9.06631L10.4554 10.2153C10.285 10.3856 10.285 10.6635 10.4554 10.8339L10.8883 11.2668C10.6067 11.7287 10.3983 12.2313 10.2705 12.7569H9.6589C9.41793 12.7569 9.22144 12.9534 9.22144 13.1944V14.8192C9.22144 15.0602 9.41793 15.2567 9.6589 15.2567H10.2705C10.3983 15.7823 10.6067 16.2849 10.8883 16.7468L10.4554 17.1796C10.285 17.35 10.285 17.6279 10.4554 17.7983L11.6044 18.9472C11.7747 19.1176 12.0526 19.1176 12.223 18.9472L12.6561 18.5141C13.1179 18.7957 13.6205 19.004 14.146 19.1319V19.7437C14.146 19.9847 14.3425 20.1812 14.5835 20.1812H16.2083C16.4493 20.1812 16.6458 19.9847 16.6458 19.7437V19.1322C17.1714 19.0044 17.674 18.796 18.1359 18.5144L18.5688 18.9473C18.7391 19.1176 19.0171 19.1176 19.1874 18.9473L20.3364 17.7983C20.5068 17.628 20.5068 17.35 20.3364 17.1797L19.9033 16.7466C20.1848 16.2848 20.3932 15.7822 20.5211 15.2567L20.521 15.2566ZM15.3959 9.9164C17.6547 9.9164 19.4862 11.7479 19.4862 14.0068C19.4862 16.2656 17.6547 18.0971 15.3959 18.0971C13.137 18.0971 11.3055 16.2656 11.3055 14.0068C11.3055 11.7479 13.137 9.9164 15.3959 9.9164ZM7.91278 1.81873C12.0456 1.81873 15.3959 2.74539 15.3959 3.88853C15.3959 5.03167 12.0456 5.95834 7.91278 5.95834C3.77996 5.95834 0.429688 5.03167 0.429688 3.88853C0.429688 2.74539 3.77996 1.81873 7.91278 1.81873ZM10.092 9.84941C9.40242 9.90738 8.67088 9.93866 7.91278 9.93866C3.78 9.93866 0.429688 9.01195 0.429688 7.86886V4.80316C1.57266 5.77959 4.49161 6.47387 7.91278 6.47387C11.334 6.47387 14.2529 5.77954 15.3959 4.80316V7.31666H14.5835C14.058 7.31666 13.6304 7.7442 13.6304 8.26971V8.49126C13.3254 8.58885 13.0291 8.71171 12.7446 8.85855L12.5877 8.70163C12.2161 8.33004 11.6114 8.33004 11.2398 8.70163L10.092 9.84933V9.84941ZM8.70581 13.9075V13.1943C8.70581 12.6688 9.13335 12.2412 9.6589 12.2412H9.88015C9.97779 11.9362 10.1007 11.6399 10.2476 11.3553L10.0908 11.1985C9.87087 10.9786 9.78111 10.677 9.82154 10.3904C7.51051 10.5506 4.67427 10.4352 2.48398 9.82939C1.90949 9.67049 0.998594 9.37512 0.429688 8.87402V11.8492C0.429688 12.9924 3.77996 13.919 7.91278 13.919C8.18069 13.919 8.44521 13.9151 8.70581 13.9075Z" fill="white"/>
</g>
</g>
</svg>
