<svg width="38" height="38" viewBox="0 0 38 38" fill="none" xmlns="http://www.w3.org/2000/svg">
<circle cx="19" cy="19" r="18.5" stroke="#0056B3"/>
<path d="M27.3334 19.625C27.1677 19.625 27.0087 19.5592 26.8915 19.4419C26.7743 19.3247 26.7084 19.1658 26.7084 19C26.7085 17.4754 26.2565 15.985 25.4095 14.7172C24.5625 13.4495 23.3586 12.4615 21.95 11.878C20.5414 11.2946 18.9915 11.1419 17.4961 11.4394C16.0008 11.7368 14.6273 12.471 13.5492 13.5492C13.2908 13.8079 13.0508 14.0844 12.8309 14.3767C12.7315 14.5093 12.5834 14.5969 12.4193 14.6204C12.2552 14.6438 12.0885 14.6011 11.9559 14.5017C11.8233 14.4022 11.7356 14.2541 11.7122 14.0901C11.6888 13.926 11.7315 13.7593 11.8309 13.6267C12.0867 13.2887 12.3651 12.9685 12.6642 12.6683C13.9169 11.4152 15.5129 10.5617 17.2506 10.2156C18.9884 9.86963 20.7896 10.0467 22.4267 10.7244C24.0638 11.4022 25.4631 12.5501 26.4478 14.0232C27.4324 15.4962 27.9581 17.2282 27.9584 19C27.9584 19.1658 27.8926 19.3247 27.7754 19.4419C27.6581 19.5592 27.4992 19.625 27.3334 19.625ZM19.0001 27.9583C17.8236 27.9586 16.6586 27.727 15.5716 27.2769C14.4846 26.8267 13.497 26.1669 12.6651 25.335C11.8332 24.5031 11.1733 23.5154 10.7232 22.4285C10.2731 21.3415 10.0415 20.1765 10.0417 19C10.0417 18.8342 10.1076 18.6753 10.2248 18.5581C10.342 18.4408 10.501 18.375 10.6667 18.375C10.8325 18.375 10.9915 18.4408 11.1087 18.5581C11.2259 18.6753 11.2917 18.8342 11.2917 19C11.2917 20.5246 11.7437 22.015 12.5907 23.2827C13.4377 24.5505 14.6416 25.5385 16.0502 26.122C17.4587 26.7054 19.0087 26.8581 20.504 26.5606C21.9994 26.2632 23.3729 25.529 24.4509 24.4508C24.7092 24.1925 24.949 23.9162 25.1684 23.6242C25.2711 23.501 25.4172 23.422 25.5766 23.4034C25.7359 23.3848 25.8962 23.4281 26.0245 23.5243C26.1529 23.6206 26.2393 23.7624 26.2661 23.9205C26.2929 24.0787 26.2579 24.2411 26.1684 24.3742C25.913 24.7126 25.6345 25.0331 25.3351 25.3333C24.5051 26.1679 23.5178 26.8296 22.4304 27.2802C21.3431 27.7308 20.1771 27.9613 19.0001 27.9583Z" fill="#0056B3"/>
<path d="M26.0709 26.6958C25.9051 26.6958 25.7461 26.63 25.6289 26.5128C25.5117 26.3956 25.4459 26.2366 25.4459 26.0708V24.3392H23.7134C23.5476 24.3392 23.3886 24.2733 23.2714 24.1561C23.1542 24.0389 23.0884 23.8799 23.0884 23.7142C23.0884 23.5484 23.1542 23.3894 23.2714 23.2722C23.3886 23.155 23.5476 23.0892 23.7134 23.0892H26.0709C26.2366 23.0892 26.3956 23.155 26.5128 23.2722C26.63 23.3894 26.6959 23.5484 26.6959 23.7142V26.0708C26.6959 26.2366 26.63 26.3956 26.5128 26.5128C26.3956 26.63 26.2366 26.6958 26.0709 26.6958ZM14.2859 14.9108H11.9292C11.7634 14.9108 11.6045 14.845 11.4873 14.7278C11.37 14.6106 11.3042 14.4516 11.3042 14.2858V11.9292C11.3042 11.7634 11.37 11.6044 11.4873 11.4872C11.6045 11.37 11.7634 11.3042 11.9292 11.3042C12.095 11.3042 12.2539 11.37 12.3711 11.4872C12.4884 11.6044 12.5542 11.7634 12.5542 11.9292V13.6608H14.2859C14.4516 13.6608 14.6106 13.7267 14.7278 13.8439C14.845 13.9611 14.9109 14.1201 14.9109 14.2858C14.9109 14.4516 14.845 14.6106 14.7278 14.7278C14.6106 14.845 14.4516 14.9108 14.2859 14.9108ZM23.1217 18.6092L24.295 16.6533L18.5834 13.2233L17.405 15.1792C17.2017 15.6109 17.101 16.0838 17.111 16.5609C17.121 17.038 17.2413 17.5063 17.4625 17.9292C17.4701 17.952 17.4726 17.9762 17.4699 18.0001C17.4672 18.024 17.4594 18.047 17.4469 18.0676C17.4345 18.0882 17.4178 18.1058 17.3979 18.1193C17.378 18.1328 17.3554 18.1419 17.3317 18.1458C16.8544 18.1496 16.3846 18.2639 15.9589 18.4798C15.5332 18.6956 15.1634 19.0072 14.8784 19.39L13.705 21.3467L19.4209 24.7767L20.595 22.8208C20.7983 22.3891 20.899 21.9163 20.8892 21.4392C20.8793 20.9621 20.7593 20.4938 20.5384 20.0708C20.5308 20.0481 20.5283 20.0239 20.5309 20.0001C20.5336 19.9762 20.5413 19.9532 20.5537 19.9327C20.566 19.9121 20.5826 19.8944 20.6024 19.8809C20.6222 19.8673 20.6447 19.8582 20.6684 19.8542C21.1457 19.8502 21.6155 19.7357 22.0412 19.5197C22.4668 19.3037 22.8367 18.992 23.1217 18.6092Z" fill="#0056B3"/>
<path d="M24.8647 15.7075L19.1473 12.2789C18.7526 12.0422 18.2407 12.1703 18.004 12.565C17.7673 12.9597 17.8954 13.4716 18.2901 13.7083L24.0076 17.1369C24.4023 17.3736 24.9142 17.2455 25.1508 16.8508C25.3875 16.456 25.2594 15.9442 24.8647 15.7075Z" fill="#0056B3"/>
<path d="M19.7234 24.2863L14.0059 20.8577C13.6112 20.621 13.0994 20.7491 12.8627 21.1438C12.626 21.5385 12.7541 22.0503 13.1488 22.287L18.8662 25.7156C19.2609 25.9523 19.7728 25.8242 20.0095 25.4295C20.2462 25.0348 20.1181 24.5229 19.7234 24.2863Z" fill="#0056B3"/>
</svg>
