<svg width="32" height="32" viewBox="0 0 32 32" fill="none" xmlns="http://www.w3.org/2000/svg">
<path d="M29.6904 2.53025H2.30956C1.03406 2.53025 0 3.56431 0 4.83981V9.05806H32V4.83981C32 3.56431 30.966 2.53025 29.6904 2.53025ZM4.00531 6.78975C3.4515 6.78975 3.0025 6.34075 3.0025 5.78694C3.0025 5.23313 3.45144 4.78413 4.00531 4.78413C4.55912 4.78413 5.00812 5.23313 5.00812 5.78694C5.00812 6.34075 4.55912 6.78975 4.00531 6.78975ZM8.08281 6.78975C7.529 6.78975 7.08 6.34075 7.08 5.78694C7.08 5.23313 7.52894 4.78413 8.08281 4.78413C8.63663 4.78413 9.08562 5.23313 9.08562 5.78694C9.08562 6.34075 8.63663 6.78975 8.08281 6.78975ZM12.3451 6.78975C11.7913 6.78975 11.3423 6.34075 11.3423 5.78694C11.3423 5.23313 11.7913 4.78413 12.3451 4.78413C12.8989 4.78413 13.3479 5.23313 13.3479 5.78694C13.3479 6.34075 12.899 6.78975 12.3451 6.78975ZM0 11.0505V27.1602C0 28.4357 1.03406 29.4697 2.30956 29.4697H29.6904C30.966 29.4697 32 28.4357 32 27.1602V11.0505H0ZM10.5465 18.4881L9.2425 22.2817C9.17598 22.4751 9.05153 22.6434 8.88605 22.7637C8.72057 22.8839 8.52208 22.9503 8.31755 22.9538C8.11302 22.9574 7.91236 22.8978 7.74284 22.7833C7.57331 22.6689 7.44314 22.505 7.37 22.3139L6.89881 21.0827L6.48669 22.2817C6.42017 22.4751 6.29572 22.6434 6.13023 22.7637C5.96475 22.8839 5.76627 22.9503 5.56174 22.9538C5.35721 22.9574 5.15655 22.8978 4.98703 22.7833C4.8175 22.6689 4.68733 22.505 4.61419 22.3139L3.16231 18.5203C2.96569 18.0065 3.22281 17.4305 3.73662 17.2339C4.25037 17.0369 4.82644 17.2943 5.02306 17.8082L5.49425 19.0394L5.90637 17.8404C6.11013 17.1181 7.35125 16.8104 7.77887 17.8082L8.25006 19.0394L8.66219 17.8404C8.84106 17.3202 9.40781 17.0436 9.92813 17.2221C10.4486 17.401 10.7254 17.9678 10.5465 18.4881ZM19.6979 18.4881L18.3939 22.2817C18.3274 22.4751 18.203 22.6434 18.0375 22.7637C17.872 22.8839 17.6735 22.9503 17.469 22.9538C17.2645 22.9574 17.0638 22.8978 16.8943 22.7833C16.7248 22.6689 16.5946 22.505 16.5214 22.3139L16.0502 21.0827L15.6381 22.2817C15.5716 22.4751 15.4472 22.6434 15.2817 22.7637C15.1162 22.8839 14.9177 22.9503 14.7132 22.9538C14.5086 22.9574 14.308 22.8978 14.1385 22.7833C13.9689 22.6689 13.8388 22.505 13.7656 22.3139L12.3138 18.5203C12.1171 18.0065 12.3743 17.4305 12.8881 17.2339C13.4019 17.0369 13.9779 17.2943 14.1745 17.8082L14.6457 19.0394L15.0578 17.8404C15.2861 17.0686 16.5608 16.8829 16.9303 17.8082L17.4015 19.0394L17.8136 17.8404C17.9925 17.3202 18.5592 17.0436 19.0796 17.2221C19.6 17.401 19.8768 17.9678 19.6979 18.4881ZM28.8494 18.4881L27.5454 22.2817C27.4789 22.4751 27.3545 22.6434 27.189 22.7637C27.0235 22.8839 26.825 22.9503 26.6205 22.9538C26.416 22.9574 26.2153 22.8978 26.0458 22.7833C25.8763 22.6689 25.7461 22.505 25.6729 22.3139L25.2017 21.0827L24.7896 22.2817C24.7231 22.4751 24.5987 22.6434 24.4332 22.7637C24.2677 22.8839 24.0692 22.9503 23.8647 22.9538C23.6601 22.9574 23.4595 22.8978 23.29 22.7833C23.1204 22.6689 22.9903 22.505 22.9171 22.3139L21.4652 18.5203C21.2686 18.0065 21.5257 17.4305 22.0395 17.2339C22.5534 17.0369 23.1294 17.2943 23.326 17.8082L23.7973 19.0395L24.2094 17.8404C24.4353 17.0982 25.6658 16.8236 26.0819 17.8082L26.5531 19.0394L26.9652 17.8404C27.1441 17.3202 27.7109 17.0436 28.2311 17.2221C28.7514 17.401 29.0282 17.9678 28.8494 18.4881Z" fill="white"/>
</svg>
